<svg xmlns="http://www.w3.org/2000/svg" viewBox="0 0 858.85 403.93"><defs><style>.cls-1{fill:#fff;}.cls-15,.cls-2{fill:none;}.cls-3{font-size:48px;font-family:Montserrat-Medium, Montserrat;font-weight:500;}.cls-4{letter-spacing:0.01em;}.cls-5{letter-spacing:-0.01em;}.cls-6{letter-spacing:-0.02em;}.cls-7{letter-spacing:-0.01em;}.cls-8{font-size:36px;font-family:Montserrat-Light, Montserrat;font-weight:300;}.cls-9{letter-spacing:0em;}.cls-10{letter-spacing:-0.01em;}.cls-11{letter-spacing:0em;}.cls-12{letter-spacing:-0.02em;}.cls-13{letter-spacing:-0.01em;}.cls-14{letter-spacing:-0.01em;}.cls-15{stroke:#989898;stroke-miterlimit:10;stroke-width:0.75px;}</style></defs><g id="Layer_2" data-name="Layer 2"><path class="cls-1" d="M339.72,108h0q0,51.86,0,103.73c0,4.26.05,4.27,4.3,4.26,6.11,0,5.38.34,5.38-5.4q0-97.48,0-195c0-6.24-.5-5.92,6-5.93q38.24,0,76.48,0a84,84,0,0,1,11.43.8c17.9,2.53,31.82,11.83,41,27,11.33,18.79,11.41,38.54,1.35,58.16-2,3.81-2,3.68,1.34,6.47,18.58,15.51,26.18,35.15,21.17,59a57.35,57.35,0,0,1-53.56,45c-15.39.55-30.82.15-46.23.25-6.66,0-6.06-1.13-6.16,6.38,0,2.58.92,3.27,3.37,3.25,12.41-.08,24.83,0,37.24,0,11.12,0,22.17-.2,32.76-4.25,16.35-6.26,28.64-17.08,36.53-32.71,7.09-14.07,8.45-29,5.74-44.32A62.43,62.43,0,0,0,498.5,99.15c-1.92-1.79-2.25-3.33-1.35-5.67a66.93,66.93,0,0,0,3.74-11.37c3.25-17.3,1.3-33.85-8.12-49.08C479.76,12,460.89.6,436.16.24c-30.9-.46-61.82-.12-92.73-.11-3.64,0-3.71.08-3.71,3.84Z"/><path d="M362.53,119.29V27.05c0-4.12,0-4.13,4.18-4.13,23.58,0,47.17-.34,70.74.13,13.53.26,24.56,6.39,32.92,17.24s10.84,23,8.53,36.11a41.53,41.53,0,0,1-13.83,24.84,13.84,13.84,0,0,0-1.84,2.46,20.75,20.75,0,0,0,2.54,1.36c14.75,5.52,25,15.39,29.13,30.82A45.57,45.57,0,0,1,476.59,186a41.16,41.16,0,0,1-23.38,7c-16.08.19-32.16.06-48.25.12-2.09,0-2.84-.86-2.71-2.85a25.44,25.44,0,0,0,0-4c-.2-2.25.85-2.84,2.95-2.83,15.41.06,30.83,0,46.24,0,14.73,0,25.47-7,32-19.78a35.09,35.09,0,0,0-8.72-42.49c-7.87-6.8-17-8.61-26.92-8.61q-24.87,0-49.74,0c-2.95,0-3.41.51-3.45,3.56,0,2,0,4,0,6,0,3.2.4,3.64,3.57,3.65,14.33,0,28.66,0,43,0a120.15,120.15,0,0,1,14,.48c18,2.17,23.75,22.69,14.83,35.2-4.45,6.24-11.13,8.83-18.46,9-15.49.29-31,.08-46.49.13-1.87,0-2.75-.63-2.73-2.6.1-8-.81-6.92,6.65-6.95,13.59-.05,27.17,0,40.75-.05,3.94,0,7.77-.49,10.82-3.59,3.79-3.86,4.92-8.44,3.19-13.32-2-5.49-6.14-8.62-12.18-8.64-12.59,0-25.17,0-37.75,0-5.08,0-10.17,0-15.25,0-3.45,0-3.91.45-3.91,3.91q0,35,0,70c0,7.64.64,6.54-6.7,6.69-2.19,0-2.92-.86-2.91-3,.05-12.49,0-25,0-37.49V51c0-1,0-2,0-3,0-1.78.82-2.55,2.6-2.54,16.24.07,32.49-.06,48.73.23,11.05.2,19.05,8.53,20.52,18.47,1.43,9.63-2.58,19.22-12.45,23.63a28.94,28.94,0,0,1-10.89,2.29c-11.66.28-23.33.1-35,.11-3.69,0-3.93.27-3.95,4,0,2.17,0,4.33,0,6.5,0,1.69.76,2.66,2.56,2.65,12.83,0,25.69.43,38.49-.2,15.17-.73,26.22-8.49,32-22.59a35.07,35.07,0,0,0-6.71-36.63c-7.41-8-16.68-11.66-27.43-11.7-19.33-.07-38.66,0-58,0-3,0-3.26.26-3.26,3.31q0,71.86,0,143.73c0,11.17-.06,22.34,0,33.5,0,2.35-.68,3.28-3.11,3.22-7.49-.2-6.64.94-6.65-6.7q0-45,0-90Zm54-38.77v0c6.16,0,12.32.13,18.48,0A12.75,12.75,0,0,0,447.3,67.61,12.54,12.54,0,0,0,435,55.07c-12.49-.14-25,0-37.47-.07-2.13,0-3,1-3,3,0,6.41,0,12.83,0,19.24,0,2.82.48,3.24,3.44,3.26C404.18,80.54,410.34,80.52,416.5,80.52Z"/><path d="M339.72,108V4c0-3.76.07-3.84,3.71-3.84,30.91,0,61.83-.35,92.73.11C460.89.6,479.76,12,492.77,33c9.42,15.23,11.37,31.78,8.12,49.08a66.93,66.93,0,0,1-3.74,11.37c-.9,2.34-.57,3.88,1.35,5.67a62.43,62.43,0,0,1,19.35,35.56C520.56,150,519.2,165,512.11,179c-7.89,15.63-20.18,26.45-36.53,32.71-10.59,4-21.64,4.3-32.76,4.25-12.41-.06-24.83-.09-37.24,0-2.45,0-3.4-.67-3.37-3.25.1-7.51-.5-6.34,6.16-6.38,15.41-.1,30.84.3,46.23-.25a57.35,57.35,0,0,0,53.56-45c5-23.83-2.59-43.47-21.17-59-3.33-2.79-3.3-2.66-1.34-6.47,10.06-19.62,10-39.37-1.35-58.16-9.15-15.18-23.07-24.48-41-27a84,84,0,0,0-11.43-.8q-38.23-.11-76.48,0c-6.54,0-6-.31-6,5.93q0,97.49,0,195c0,5.74.73,5.39-5.38,5.4-4.25,0-4.3,0-4.3-4.26q0-51.87,0-103.73Z"/><path class="cls-2" d="M416.5,80.52c-6.16,0-12.32,0-18.48,0-3,0-3.42-.44-3.44-3.26,0-6.41,0-12.83,0-19.24,0-2.07.86-3,3-3,12.49,0,25-.07,37.47.07A12.54,12.54,0,0,1,447.3,67.61,12.75,12.75,0,0,1,435,80.46c-6.16.16-12.32,0-18.48,0Z"/><text class="cls-3" transform="translate(12.41 290.26)">BARRE<tspan class="cls-4" x="173.42" y="0">T</tspan><tspan x="202.08" y="0">T </tspan><tspan class="cls-5" x="243.17" y="0">P</tspan><tspan x="277.34" y="0">ENROD </tspan><tspan class="cls-6" x="476.25" y="0">V</tspan><tspan x="509.37" y="0">OICE </tspan><tspan class="cls-5" x="644.35" y="0">S</tspan><tspan class="cls-7" x="673.68" y="0">T</tspan><tspan x="701.23" y="0">UDIO</tspan></text><text class="cls-8" transform="translate(84.69 373.36)">T<tspan class="cls-9" x="20.27" y="0">E</tspan><tspan x="44.21" y="0">CHNIQUE - </tspan><tspan class="cls-10" x="254.95" y="0">S</tspan><tspan class="cls-11" x="276.51" y="0">T</tspan><tspan class="cls-12" x="296.67" y="0">Y</tspan><tspan x="318.56" y="0">LE - </tspan><tspan class="cls-13" x="396.64" y="0">P</tspan><tspan x="422.02" y="0">ER</tspan><tspan class="cls-14" x="472.03" y="0">F</tspan><tspan x="494.42" y="0">ORMANCE</tspan></text><line class="cls-15" x1="53.93" y1="322.09" x2="804.93" y2="322.09"/></g></svg>